<?xml version="1.0" encoding="UTF-8" standalone="no"?>
<!-- Generator: Adobe Illustrator 25.0.0, SVG Export Plug-In . SVG Version: 6.00 Build 0)  -->

<svg
   xmlns:dc="http://purl.org/dc/elements/1.1/"
   xmlns:cc="http://creativecommons.org/ns#"
   xmlns:rdf="http://www.w3.org/1999/02/22-rdf-syntax-ns#"
   xmlns:svg="http://www.w3.org/2000/svg"
   xmlns="http://www.w3.org/2000/svg"
   xmlns:sodipodi="http://sodipodi.sourceforge.net/DTD/sodipodi-0.dtd"
   xmlns:inkscape="http://www.inkscape.org/namespaces/inkscape"
   version="1.1"
   id="Layer_1"
   x="0px"
   y="0px"
   viewBox="0 0 145.5 75.3"
   style="enable-background:new 0 0 145.5 75.3;"
   xml:space="preserve"
   sodipodi:docname="fulllogo.svg"
   inkscape:version="0.92.5 (2060ec1f9f, 2020-04-08)"><metadata
   id="metadata39"><rdf:RDF><cc:Work
       rdf:about=""><dc:format>image/svg+xml</dc:format><dc:type
         rdf:resource="http://purl.org/dc/dcmitype/StillImage" /></cc:Work></rdf:RDF></metadata><defs
   id="defs37" /><sodipodi:namedview
   pagecolor="#ffffff"
   bordercolor="#666666"
   borderopacity="1"
   objecttolerance="10"
   gridtolerance="10"
   guidetolerance="10"
   inkscape:pageopacity="0"
   inkscape:pageshadow="2"
   inkscape:window-width="1848"
   inkscape:window-height="1016"
   id="namedview35"
   showgrid="false"
   inkscape:zoom="2.3848797"
   inkscape:cx="121.66669"
   inkscape:cy="83.927274"
   inkscape:window-x="1992"
   inkscape:window-y="27"
   inkscape:window-maximized="1"
   inkscape:current-layer="Layer_1" />
<g
   id="g22">
	<path
   d="M53.7,0.5h6.8c5.8,0,8,2.9,8,7.9v1.4c0,5-1.6,6.4-3.3,7.1c1.7,0.6,3.9,2.1,3.9,7.1v2.6c0,6-2.3,9.1-8.4,9.1h-7.1V0.5z    M60.1,15c3.1,0,4-1.1,4-4.8V8.8c0-3-1.1-4.3-3.9-4.3h-1.9V15H60.1z M58.3,31.7h2c3.4,0,4.2-1.6,4.2-5.3V24c0-3.6-1.1-5.1-4.5-5.1   h-1.8V31.7z"
   id="path2" />
	<path
   d="M78.5,19.6v16h-4.7V0.5h6.9c5.3,0,8.2,2.2,8.2,8.3v1.5c0,5.1-2,6.8-3.6,7.4c2.1,0.9,3.2,2.5,3.2,7.2c0,3-0.1,8.6,0.3,10.8   h-4.6c-0.5-2.2-0.4-8-0.4-10.5c0-4.4-0.6-5.5-3.9-5.5H78.5z M78.5,15.7h1.7c3.1,0,4-1.4,4-5.2V9.1c0-2.9-0.7-4.7-4-4.7h-1.8V15.7z"
   id="path4" />
	<path
   d="M98.1,35.6V22.9c0-0.4-0.1-0.7-0.2-1.1L91.4,0.5h5.2c1.6,6,3.4,13,3.9,16.5h0.1c0.7-3.8,2.5-10.7,3.9-16.5h5l-6.6,21.7   c-0.1,0.2-0.1,0.6-0.1,1.2v12.2H98.1z"
   id="path6" />
	<path
   d="M127.1,25.3v1.3c0,4.2-0.7,9.5-7.7,9.5c-6.3,0-7.6-4.2-7.6-9.4V8.9c0-5.5,2.4-8.9,7.6-8.9c6.3,0,7.5,4.3,7.5,9.1v1.5h-4.7   v-2c0-2.5-0.5-4.3-2.8-4.3c-2.2,0-2.8,1.6-2.8,4.3v18.4c0,2.8,0.6,4.8,2.9,4.8c2.3,0,2.8-1.9,2.8-4.8v-1.8H127.1z"
   id="path8" />
	<path
   d="M143,19.2h-7.4v12.1h8.5l-0.6,4.3h-13V0.5h12.9v4.4h-8.2v10h7.8V19.2z"
   id="path10" />
	<path
   d="M60.3,74.8V62.1c0-0.4-0.1-0.7-0.2-1.1l-6.5-21.3h5.2c1.6,6,3.4,13,3.9,16.5h0.1c0.7-3.8,2.5-10.7,3.9-16.5h5l-6.6,21.7   C65,61.6,65,61.9,65,62.6v12.2H60.3z"
   id="path12" />
	<path
   d="M89.4,48.7v17c0,6.5-2.7,9.6-8.4,9.6c-5.6,0-7.9-3.4-7.9-9.6V48.7c0-6.4,3.1-9.5,8.2-9.5C86.6,39.2,89.4,42.4,89.4,48.7z    M77.9,48.3v17.9c0,3.4,1.2,4.8,3.3,4.8c2.3,0,3.4-1.4,3.4-4.9V48.3c0-3.2-1-4.8-3.4-4.8C79,43.5,77.9,45,77.9,48.3z"
   id="path14" />
	<path
   d="M93.7,39.7h7c7.5,0,9,4.2,9,10.3v13.6c0,5.4-0.9,11.2-9.1,11.2h-6.9V39.7z M98.4,70.8h1.9c3.9,0,4.6-2.3,4.6-6.4V49.6   c0-3.6-0.6-5.8-4.6-5.8h-1.9V70.8z"
   id="path16" />
	<path
   d="M126.4,58.3h-7.8v12.1h8.9l-0.6,4.3h-13V39.7h12.9V44h-8.2v10h7.8V58.3z"
   id="path18" />
	<path
   d="M135,58.8v16h-4.7V39.7h6.9c5.3,0,8.2,2.2,8.2,8.3v1.5c0,5.1-2,6.8-3.6,7.4c2.1,0.9,3.2,2.5,3.2,7.2c0,3-0.1,8.6,0.3,10.8   h-4.6c-0.5-2.2-0.4-8-0.4-10.5c0-4.4-0.6-5.5-3.9-5.5H135z M135,54.9h1.7c3.1,0,4-1.4,4-5.2v-1.4c0-2.9-0.7-4.7-4-4.7H135V54.9z"
   id="path20" />
</g>

<rect
   style="opacity:1;vector-effect:none;fill:#000000;fill-opacity:1;stroke:none;stroke-width:9.81652737;stroke-linecap:butt;stroke-linejoin:miter;stroke-miterlimit:4;stroke-dasharray:none;stroke-dashoffset:0;stroke-opacity:1;paint-order:markers stroke fill"
   id="rect846"
   width="4.6314483"
   height="75.376541"
   x="41.936409"
   y="0.00564226" /><rect
   style="opacity:1;vector-effect:none;fill:#000000;fill-opacity:1;stroke:none;stroke-width:7.70558882;stroke-linecap:butt;stroke-linejoin:miter;stroke-miterlimit:4;stroke-dasharray:none;stroke-dashoffset:0;stroke-opacity:1;paint-order:markers stroke fill"
   id="rect846-3"
   width="4.6314483"
   height="46.444271"
   x="-75.423973"
   y="-0.00030120899"
   transform="rotate(-90)" /><rect
   style="opacity:1;vector-effect:none;fill:#000000;fill-opacity:1;stroke:none;stroke-width:9.19631958;stroke-linecap:butt;stroke-linejoin:miter;stroke-miterlimit:4;stroke-dasharray:none;stroke-dashoffset:0;stroke-opacity:1;paint-order:markers stroke fill"
   id="rect846-6"
   width="4.6314483"
   height="66.152847"
   x="-0.00030120899"
   y="0.0082337661" /><rect
   style="opacity:1;vector-effect:none;fill:#000000;fill-opacity:1;stroke:none;stroke-width:6.90949821;stroke-linecap:butt;stroke-linejoin:miter;stroke-miterlimit:4;stroke-dasharray:none;stroke-dashoffset:0;stroke-opacity:1;paint-order:markers stroke fill"
   id="rect846-6-5"
   width="4.6314483"
   height="37.343361"
   x="61.52964"
   y="-37.34306"
   transform="rotate(90)" /><rect
   style="opacity:1;vector-effect:none;fill:#000000;fill-opacity:1;stroke:none;stroke-width:6.90949869;stroke-linecap:butt;stroke-linejoin:miter;stroke-miterlimit:4;stroke-dasharray:none;stroke-dashoffset:0;stroke-opacity:1;paint-order:markers stroke fill"
   id="rect846-6-5-7"
   width="4.6314483"
   height="37.343365"
   x="32.711613"
   y="28.817722" /><rect
   style="opacity:1;vector-effect:none;fill:#000000;fill-opacity:1;stroke:none;stroke-width:6.00681877;stroke-linecap:butt;stroke-linejoin:miter;stroke-miterlimit:4;stroke-dasharray:none;stroke-dashoffset:0;stroke-opacity:1;paint-order:markers stroke fill"
   id="rect846-6-5-0"
   width="4.6314483"
   height="28.22341"
   x="28.817722"
   y="-37.34306"
   transform="rotate(90)" /><rect
   style="opacity:1;vector-effect:none;fill:#000000;fill-opacity:1;stroke:none;stroke-width:6.53569174;stroke-linecap:butt;stroke-linejoin:miter;stroke-miterlimit:4;stroke-dasharray:none;stroke-dashoffset:0;stroke-opacity:1;paint-order:markers stroke fill"
   id="rect846-6-5-0-6"
   width="4.6314483"
   height="33.412086"
   x="9.1196566"
   y="0.0013189552" /><rect
   style="opacity:1;vector-effect:none;fill:#000000;fill-opacity:1;stroke:none;stroke-width:4.87470007;stroke-linecap:butt;stroke-linejoin:miter;stroke-miterlimit:4;stroke-dasharray:none;stroke-dashoffset:0;stroke-opacity:1;paint-order:markers stroke fill"
   id="rect846-6-5-0-62"
   width="4.6314483"
   height="18.587297"
   x="38.08062"
   y="-27.706953"
   transform="rotate(90)" /><rect
   style="opacity:1;vector-effect:none;fill:#000000;fill-opacity:1;stroke:none;stroke-width:4.91342592;stroke-linecap:butt;stroke-linejoin:miter;stroke-miterlimit:4;stroke-dasharray:none;stroke-dashoffset:0;stroke-opacity:1;paint-order:markers stroke fill"
   id="rect846-6-5-0-6-6"
   width="4.6314483"
   height="18.883793"
   x="9.1196566"
   y="38.08062" /><rect
   style="opacity:1;vector-effect:none;fill:#000000;fill-opacity:1;stroke:none;stroke-width:4.91342545;stroke-linecap:butt;stroke-linejoin:miter;stroke-miterlimit:4;stroke-dasharray:none;stroke-dashoffset:0;stroke-opacity:1;paint-order:markers stroke fill"
   id="rect846-6-5-0-62-1"
   width="4.6314483"
   height="18.883793"
   x="52.332966"
   y="-28.003447"
   transform="rotate(90)" /><rect
   style="opacity:1;vector-effect:none;fill:#000000;fill-opacity:1;stroke:none;stroke-width:4.91342592;stroke-linecap:butt;stroke-linejoin:miter;stroke-miterlimit:4;stroke-dasharray:none;stroke-dashoffset:0;stroke-opacity:1;paint-order:markers stroke fill"
   id="rect846-6-5-0-6-6-7"
   width="4.6314483"
   height="18.883793"
   x="23.371998"
   y="38.080616" /><rect
   style="opacity:1;vector-effect:none;fill:#000000;fill-opacity:1;stroke:none;stroke-width:4.95184851;stroke-linecap:butt;stroke-linejoin:miter;stroke-miterlimit:4;stroke-dasharray:none;stroke-dashoffset:0;stroke-opacity:1;paint-order:markers stroke fill"
   id="rect846-6-5-0-2"
   width="4.6314483"
   height="19.180288"
   x="19.59059"
   y="-37.562836"
   transform="rotate(90)" /><rect
   style="opacity:1;vector-effect:none;fill:#000000;fill-opacity:1;stroke:none;stroke-width:5.00893021;stroke-linecap:butt;stroke-linejoin:miter;stroke-miterlimit:4;stroke-dasharray:none;stroke-dashoffset:0;stroke-opacity:1;paint-order:markers stroke fill"
   id="rect846-6-5-0-6-0-2"
   width="4.6314483"
   height="19.625032"
   x="18.382551"
   y="4.5970035" /><rect
   style="opacity:1;vector-effect:none;fill:#000000;fill-opacity:1;stroke:none;stroke-width:5.00893021;stroke-linecap:butt;stroke-linejoin:miter;stroke-miterlimit:4;stroke-dasharray:none;stroke-dashoffset:0;stroke-opacity:1;paint-order:markers stroke fill"
   id="rect846-6-5-0-6-0-2-3"
   width="4.6314483"
   height="19.625032"
   x="32.931389"
   y="4.5970035" /></svg>